P3
# Plain ppm
2 2
255
70
70
120
80
80
150
120
120
150
60
60
170
