P3
# Created by GIMP version 2.10.30 PNM plug-in
2 2
255
100
100
130
40
40
150
50
50
100
60
60
130