P3
# Plain ppm
2 2
255
50
50
100
60
60
130
100
100
130
40
40
150
